<?xml version="1.0" encoding="UTF-8"?>
<svg id="Layer_2" data-name="Layer 2" xmlns="http://www.w3.org/2000/svg" viewBox="0 0 1814.2 543.42">
  <defs>
    <style>
      .cls-1 {
        fill: #7f2e57;
      }

      .cls-1, .cls-2, .cls-3, .cls-4, .cls-5 {
        stroke-width: 0px;
      }

      .cls-2 {
        fill: #4a0e4c;
      }

      .cls-3 {
        fill: #7f4666;
      }

      .cls-4 {
        fill: #9b7b8f;
      }

      .cls-5 {
        fill: #fff;
      }
    </style>
  </defs>
  <g id="Layer_1-2" data-name="Layer 1">
    <g>
      <g>
        <rect class="cls-4" x="0" y="288.27" width="453.56" height="37.79"/>
        <rect class="cls-3" x="453.54" y="288.27" width="453.56" height="37.79"/>
        <rect class="cls-1" x="907.1" y="288.27" width="453.56" height="37.79"/>
        <rect class="cls-2" x="1360.64" y="288.27" width="453.56" height="37.79"/>
      </g>
      <g>
        <path class="cls-5" d="M426.22,497.79v38.05h-6.78v-16.64h-25.86v16.64h-6.78v-38.05h6.78v15.47h25.86v-15.47h6.78Z"/>
        <path class="cls-5" d="M456.12,535.84h-6.78v-38.05h6.78v38.05Z"/>
        <path class="cls-5" d="M517.22,508.92l-5.62,3.13c-2.44-5.72-7.47-8.85-14.47-8.85-9.27,0-15.84,5.46-15.84,13.57s6.46,13.67,15.53,13.67c7.58,0,14.63-3.76,14.94-9.17h-18.18v-5.94h24.17v20.51h-6.36v-4.88c-2.28,2.97-7.9,5.46-14.57,5.46-13.09,0-22.52-8.37-22.52-19.71s9.7-19.5,22.79-19.5c9.8,0,17.22,4.4,20.14,11.71Z"/>
        <path class="cls-5" d="M576.69,497.79v38.05h-6.78v-16.64h-25.86v16.64h-6.78v-38.05h6.78v15.47h25.86v-15.47h6.78Z"/>
        <path class="cls-5" d="M630.28,522.28c4.29,6.36,11.18,8.27,16.91,8.27,6.84,0,11.76-2.28,11.76-5.67,0-4.03-3.18-4.35-14.31-5.62-9.7-1.11-16.59-2.7-16.59-10.12,0-6.89,6.78-11.92,17.38-11.92,8.43,0,16.06,3.18,19.29,8.16l-4.88,4.08c-2.76-4.08-8.05-6.36-14.68-6.36-7.52,0-10.7,2.6-10.7,5.35,0,3.02,2.44,3.76,12.4,4.93,11.55,1.33,18.71,2.6,18.71,10.71s-8.21,12.35-18.55,12.35c-9.38,0-18.07-3.87-21.62-9.64l4.88-4.5Z"/>
        <path class="cls-5" d="M707.39,503.73v32.11h-6.78v-32.11h-17.17v-5.94h41.12v5.94h-17.17Z"/>
        <path class="cls-5" d="M760.28,497.79l19.34,38.05h-7.21l-4.82-9.54h-22.1l-4.82,9.54h-7.26l19.4-38.05h7.47ZM748.52,520.37h16.11l-8.05-15.9-8.06,15.9Z"/>
        <path class="cls-5" d="M804.33,516.87l22.84-19.08h9.64l-20.19,16.27,21.41,21.78h-9.11l-17.22-17.81-7.37,5.88v11.92h-6.78v-38.05h6.78v19.08Z"/>
        <path class="cls-5" d="M893.58,497.79v5.94h-30.1v9.54h27.08v5.94h-27.08v10.7h30.1v5.94h-36.78v-38.05h36.78Z"/>
        <path class="cls-5" d="M916.21,522.28c4.29,6.36,11.18,8.27,16.91,8.27,6.84,0,11.76-2.28,11.76-5.67,0-4.03-3.18-4.35-14.31-5.62-9.7-1.11-16.59-2.7-16.59-10.12,0-6.89,6.78-11.92,17.38-11.92,8.43,0,16.06,3.18,19.29,8.16l-4.88,4.08c-2.76-4.08-8.06-6.36-14.68-6.36-7.53,0-10.71,2.6-10.71,5.35,0,3.02,2.44,3.76,12.4,4.93,11.55,1.33,18.71,2.6,18.71,10.71s-8.21,12.35-18.55,12.35c-9.38,0-18.07-3.87-21.62-9.64l4.88-4.5Z"/>
        <path class="cls-5" d="M970.54,528.16h7.68v8.06c0,4.45-3.02,7.15-7.68,7.21v-3.55c2.38-.16,3.5-1.27,3.5-3.6v-.42h-3.5v-7.68Z"/>
        <path class="cls-5" d="M1068.95,497.79v38.05h-6.78v-16.64h-25.86v16.64h-6.78v-38.05h6.78v15.47h25.86v-15.47h6.78Z"/>
        <path class="cls-5" d="M1115.01,497.79l19.34,38.05h-7.21l-4.82-9.54h-22.1l-4.82,9.54h-7.26l19.4-38.05h7.47ZM1103.25,520.37h16.11l-8.06-15.9-8.05,15.9Z"/>
        <path class="cls-5" d="M1192.02,535.84h-5.93l-25.97-29.52v29.52h-6.52v-38.05h7l24.91,28.25v-28.25h6.52v38.05Z"/>
        <path class="cls-5" d="M1215.13,497.79h19.29c13.09,0,21.46,7.42,21.46,19.03s-8.37,19.02-21.46,19.02h-19.29v-38.05ZM1234.42,530.01c9.06,0,14.52-5.19,14.52-13.2s-5.46-13.2-14.57-13.2h-12.56v26.39h12.61Z"/>
        <path class="cls-5" d="M1276.72,497.79h6.78v32.11h27.77v5.94h-34.55v-38.05Z"/>
        <path class="cls-5" d="M1368.77,497.79v5.94h-30.1v9.54h27.08v5.94h-27.08v10.7h30.1v5.94h-36.78v-38.05h36.78Z"/>
        <path class="cls-5" d="M1390.09,497.79h19.29c13.09,0,21.46,7.42,21.46,19.03s-8.37,19.02-21.46,19.02h-19.29v-38.05ZM1409.38,530.01c9.06,0,14.52-5.19,14.52-13.2s-5.46-13.2-14.57-13.2h-12.56v26.39h12.61Z"/>
      </g>
      <path class="cls-5" d="M1450.47,528.16h7.68v7.68h-7.68v-7.68Z"/>
      <g>
        <path class="cls-5" d="M235.92,75.34c12.9,19.11,33.61,24.85,50.81,24.85,20.55,0,35.36-6.85,35.36-17.04,0-12.1-9.56-13.06-43.01-16.88-29.15-3.35-49.85-8.12-49.85-30.42,0-20.71,20.39-35.84,52.24-35.84,25.32,0,48.26,9.56,57.98,24.53l-14.65,12.27c-8.28-12.27-24.21-19.12-44.12-19.12-22.62,0-32.18,7.81-32.18,16.09,0,9.08,7.33,11.31,37.27,14.82,34.72,3.98,56.23,7.8,56.23,32.17s-24.69,37.11-55.75,37.11c-28.19,0-54.31-11.63-64.99-28.99l14.65-13.54Z"/>
        <path class="cls-5" d="M439.91,0c29.15,0,50.97,13.38,59.73,35.36l-16.88,9.24c-7.33-17.2-21.98-26.6-42.69-26.6-26.92,0-46.67,16.56-46.67,40.93s19.75,40.93,46.67,40.93c20.71,0,35.36-9.4,42.69-26.6l16.88,9.24c-8.76,21.98-30.58,35.36-59.73,35.36-38.39,0-67.38-25.01-67.38-58.93S401.52,0,439.91,0Z"/>
        <path class="cls-5" d="M660.07,1.75v114.36h-20.39v-50.01h-77.73v50.01h-20.39V1.75h20.39v46.51h77.73V1.75h20.39Z"/>
        <path class="cls-5" d="M731.25,116.12h-20.39V1.75h20.39v114.36Z"/>
        <path class="cls-5" d="M781.71,1.75h20.39v96.53h83.46v17.84h-103.85V1.75Z"/>
        <path class="cls-5" d="M928.92,1.75h20.39v96.53h83.46v17.84h-103.85V1.75Z"/>
        <path class="cls-5" d="M1096.66,116.12h-20.39V1.75h20.39v114.36Z"/>
        <path class="cls-5" d="M1262.6,116.12h-17.84l-78.05-88.72v88.72h-19.59V1.75h21.03l74.86,84.9V1.75h19.59v114.36Z"/>
        <path class="cls-5" d="M1432.28,35.2l-16.89,9.4c-7.33-17.2-22.46-26.6-43.48-26.6-27.88,0-47.63,16.4-47.63,40.78s19.43,41.09,46.67,41.09c22.78,0,43.96-11.31,44.92-27.56h-54.63v-17.84h72.63v61.64h-19.11v-14.65c-6.85,8.92-23.74,16.4-43.81,16.4-39.34,0-67.69-25.17-67.69-59.25S1332.41,0,1371.75,0c29.47,0,51.77,13.22,60.53,35.2Z"/>
        <path class="cls-5" d="M1486.29,75.34c12.9,19.11,33.61,24.85,50.81,24.85,20.54,0,35.36-6.85,35.36-17.04,0-12.1-9.56-13.06-43.01-16.88-29.15-3.35-49.85-8.12-49.85-30.42,0-20.71,20.39-35.84,52.24-35.84,25.33,0,48.26,9.56,57.98,24.53l-14.65,12.27c-8.28-12.27-24.21-19.12-44.12-19.12-22.62,0-32.18,7.81-32.18,16.09,0,9.08,7.33,11.31,37.27,14.82,34.72,3.98,56.22,7.8,56.22,32.17s-24.69,37.11-55.75,37.11c-28.19,0-54.31-11.63-64.98-28.99l14.65-13.54Z"/>
      </g>
    </g>
  </g>
</svg>