<?xml version="1.0" encoding="UTF-8"?>
<svg id="Layer_2" data-name="Layer 2" xmlns="http://www.w3.org/2000/svg" viewBox="0 0 1814.2 326.07">
  <defs>
    <style>
      .cls-1 {
        fill: #000;
      }

      .cls-1, .cls-2, .cls-3, .cls-4, .cls-5 {
        stroke-width: 0px;
      }

      .cls-2 {
        fill: #7f2e57;
      }

      .cls-3 {
        fill: #4a0e4c;
      }

      .cls-4 {
        fill: #7f4666;
      }

      .cls-5 {
        fill: #9b7b8f;
      }
    </style>
  </defs>
  <g id="Layer_1-2" data-name="Layer 1">
    <g>
      <g>
        <rect class="cls-5" x="0" y="288.27" width="453.56" height="37.79"/>
        <rect class="cls-4" x="453.54" y="288.27" width="453.56" height="37.79"/>
        <rect class="cls-2" x="907.1" y="288.27" width="453.56" height="37.79"/>
        <rect class="cls-3" x="1360.64" y="288.27" width="453.56" height="37.79"/>
      </g>
      <g>
        <path class="cls-1" d="M235.92,75.34c12.9,19.11,33.61,24.85,50.81,24.85,20.55,0,35.36-6.85,35.36-17.04,0-12.1-9.56-13.06-43.01-16.88-29.15-3.35-49.85-8.12-49.85-30.42,0-20.71,20.39-35.84,52.24-35.84,25.32,0,48.26,9.56,57.98,24.53l-14.65,12.27c-8.28-12.27-24.21-19.12-44.12-19.12-22.62,0-32.18,7.81-32.18,16.09,0,9.08,7.33,11.31,37.27,14.82,34.72,3.98,56.23,7.8,56.23,32.17s-24.69,37.11-55.75,37.11c-28.19,0-54.31-11.63-64.99-28.99l14.65-13.54Z"/>
        <path class="cls-1" d="M439.91,0c29.15,0,50.97,13.38,59.73,35.36l-16.88,9.24c-7.33-17.2-21.98-26.6-42.69-26.6-26.92,0-46.67,16.56-46.67,40.93s19.75,40.93,46.67,40.93c20.71,0,35.36-9.4,42.69-26.6l16.88,9.24c-8.76,21.98-30.58,35.36-59.73,35.36-38.39,0-67.38-25.01-67.38-58.93S401.52,0,439.91,0Z"/>
        <path class="cls-1" d="M660.07,1.75v114.36h-20.39v-50.01h-77.73v50.01h-20.39V1.75h20.39v46.51h77.73V1.75h20.39Z"/>
        <path class="cls-1" d="M731.25,116.12h-20.39V1.75h20.39v114.36Z"/>
        <path class="cls-1" d="M781.71,1.75h20.39v96.53h83.46v17.84h-103.85V1.75Z"/>
        <path class="cls-1" d="M928.92,1.75h20.39v96.53h83.46v17.84h-103.85V1.75Z"/>
        <path class="cls-1" d="M1096.66,116.12h-20.39V1.75h20.39v114.36Z"/>
        <path class="cls-1" d="M1262.6,116.12h-17.84l-78.05-88.72v88.72h-19.59V1.75h21.03l74.86,84.9V1.75h19.59v114.36Z"/>
        <path class="cls-1" d="M1432.28,35.2l-16.89,9.4c-7.33-17.2-22.46-26.6-43.48-26.6-27.88,0-47.63,16.4-47.63,40.78s19.43,41.09,46.67,41.09c22.78,0,43.96-11.31,44.92-27.56h-54.63v-17.84h72.63v61.64h-19.11v-14.65c-6.85,8.92-23.74,16.4-43.81,16.4-39.34,0-67.69-25.17-67.69-59.25S1332.41,0,1371.75,0c29.47,0,51.77,13.22,60.53,35.2Z"/>
        <path class="cls-1" d="M1486.29,75.34c12.9,19.11,33.61,24.85,50.81,24.85,20.54,0,35.36-6.85,35.36-17.04,0-12.1-9.56-13.06-43.01-16.88-29.15-3.35-49.85-8.12-49.85-30.42,0-20.71,20.39-35.84,52.24-35.84,25.33,0,48.26,9.56,57.98,24.53l-14.65,12.27c-8.28-12.27-24.21-19.12-44.12-19.12-22.62,0-32.18,7.81-32.18,16.09,0,9.08,7.33,11.31,37.27,14.82,34.72,3.98,56.22,7.8,56.22,32.17s-24.69,37.11-55.75,37.11c-28.19,0-54.31-11.63-64.98-28.99l14.65-13.54Z"/>
      </g>
    </g>
  </g>
</svg>